<?xml version="1.0" encoding="utf-8"?>
<!-- Generator: Adobe Illustrator 16.0.4, SVG Export Plug-In . SVG Version: 6.00 Build 0)  -->
<!DOCTYPE svg PUBLIC "-//W3C//DTD SVG 1.1//EN" "http://www.w3.org/Graphics/SVG/1.1/DTD/svg11.dtd">
<svg version="1.1" id="Layer_1" xmlns="http://www.w3.org/2000/svg" xmlns:xlink="http://www.w3.org/1999/xlink" x="0px" y="0px"
	 width="50px" height="50px" viewBox="0 0 50 50" enable-background="new 0 0 50 50" xml:space="preserve">
<g>
	<path d="M31.059,34.007c-7.439,0-13.89-1.249-17.932-3.541c-1.391,0.674-5.772,2.858-6.931,4.242
		c-0.238,0.283-0.517,1.014-0.534,1.383c-0.013,0.286,0.314,1.1,0.314,1.1c9.837,4.158,15.337,2.574,20.836,1.49
		c5.85-1.15,11.156-4.894,11.156-4.894c0.043-0.048,0.096-0.097,0.143-0.144C35.698,33.882,33.331,34.007,31.059,34.007z"/>
	<path d="M31.216,11.757l-0.083,0.002c-0.07-0.925-1.188-1.661-2.57-1.661c-1.426,0-2.582,0.783-2.582,1.75
		c0,0.016,0.006,0.03,0.006,0.046c-13.071,1.358-12.537,10.507-12.27,15.447c0.047,0.864-0.015,1.715-0.073,2.272
		c5.331,3.036,15.178,4.151,25.915,2.866c1.99-1.371,4.705-2.686,4.705-2.686s0.168-5.074,0-6.754
		C43.379,14.215,35.834,12.182,31.216,11.757z"/>
</g>
</svg>
