<?xml version="1.0" encoding="utf-8"?>
<!-- Generator: Adobe Illustrator 17.1.0, SVG Export Plug-In . SVG Version: 6.00 Build 0)  -->
<!DOCTYPE svg PUBLIC "-//W3C//DTD SVG 1.1//EN" "http://www.w3.org/Graphics/SVG/1.1/DTD/svg11.dtd">
<svg version="1.1" id="Capa_1" xmlns="http://www.w3.org/2000/svg" xmlns:xlink="http://www.w3.org/1999/xlink" x="0px" y="0px"
	 width="300px" height="300px" viewBox="0 0 300 300" enable-background="new 0 0 300 300" xml:space="preserve">
<g>
	<path d="M225.5,79.3c-9.7-16.4-29.6-28.1-51.5-33.6c6.6-7.7,13.8-16.5,15.6-26c0.6-3.5-0.9-6-4.1-7.3c-13.2-5.3-24.3,2.6-30.8,13.5
		c-5-10.1-13.3-18.1-25-12c-6.1,3.1-8.3,9.4-6.6,15.9c1.5,5.7,6.1,10,11.4,13.2c-21.4,2.7-39.8,12.8-46.9,32.1
		C61.9,93.8,48.8,129.2,53.1,160c0.3,2.5,2.3,3.6,4.4,3.8c13.7,16.4,38.5,18.8,58.5,17.8c11.8-0.6,30.5-4.2,41.9-13.1
		c13.3,10.2,42.8,14.9,50.5,15.6c12,1.1,58.2-2.2,61-21.1c2.6-0.9,4.7-3,4.5-6.2C272.6,131.2,256.7,83,225.5,79.3z M176.1,22.9
		c-3.2,7.3-9.2,14.1-15,20.4c-0.2,0-0.5-0.1-0.7-0.1C162.4,34.7,167.5,23.8,176.1,22.9z M135.1,24.4c7.5-3.1,11.2,7.6,12.7,14.9
		C143.3,36.2,129.8,26.6,135.1,24.4z M157.3,145c-12.5-25.6-32.5-52-55.5-68.2C113,64.2,131,57.3,149.6,56.2
		c-5.3,6.2-13.4,16.8-4.8,20.9c2.8,1.3,5.2-0.1,5.8-2.4c0.1-0.1,0.2-0.1,0.3-0.2c0.6-0.6,1.1-1.3,1.6-2c1.3-2.3,2.8-4.4,4.5-6.5
		c1-1.3,2.1-2.6,3.2-3.9c0.7,1.3,1.5,2.6,2.2,3.9c2.2,4,4,8.9,8.1,11.3c3.5,2,7.3-1.3,6.5-5c-1-4.6-5.3-8.3-7.9-12.1
		c-0.8-1.2-1.6-2.3-2.5-3.4c17.8,2.4,34.4,10.2,44.2,23.7C185.9,88.1,167.1,120.3,157.3,145z"/>
	<path d="M280.5,210.9c5.2-4.4,8.8-10.6,9.1-19.1c0.1-3.4-2.8-5.6-5.9-5.9c-13.3-1.2-29.8,7.2-36.8,19.2c-1-0.9-2.2-1.5-3.9-1.4
		c-61.8,4.1-121.7,0.8-183.4-0.8c-0.6-0.9-1.4-1.7-2.5-2.1c-5.7-9-14-15.5-22.4-22.5c-3-2.5-7-2.1-9.2,1.2
		c-9.9,14.5,1.1,24.2,14,29.3c-10.1,9-15.4,22.4-11.3,36.3c1.2,4.1,5.6,5.6,9.3,3.8c8.4-4.3,14.2-11.4,19.2-19.3c1.9-3,5-7.6,6.4-12
		c13.2,5.9,24.5,10,37.5,21c17.2,14.7,29.8,34.4,47.2,48.4c8,6.5,16.7,3.1,24.4-1.7c25.5-16,46.6-43,70.9-62
		c4.8,8.5,12.4,16.5,22.4,18.2c7.9,1.4,16.1-1.5,20.7-8.2c4.4-6.2,3.7-13.9-1.4-19.4C283.4,212.8,282,211.8,280.5,210.9z
		 M48.7,218.4c-2.4,4.6-5.2,9-8.8,12.8c1.2-5.6,4.7-10.5,9.4-14.2C49.1,217.4,48.9,217.9,48.7,218.4z M275.9,198.3
		c-3,5.3-9.1,7.9-15.6,9c-0.8,0-1.7,0.1-2.5,0.2c1.4-1.2,2.9-2.2,4.5-3.3C266.3,201.4,271,199.3,275.9,198.3z M275.8,226.6
		c-6.4,8-15,0.4-20.4-6.7c1.6-0.1,3.1-0.2,4.7-0.5c5.3-0.2,10.8,0.2,15.1,2.9C277.4,223.6,276.8,225.3,275.8,226.6z"/>
</g>
</svg>
