<?xml version="1.0" encoding="iso-8859-1"?>
<!-- Generator: Adobe Illustrator 17.0.2, SVG Export Plug-In . SVG Version: 6.00 Build 0)  -->
<!DOCTYPE svg PUBLIC "-//W3C//DTD SVG 1.1//EN" "http://www.w3.org/Graphics/SVG/1.1/DTD/svg11.dtd">
<svg version="1.1" id="Layer_1" xmlns="http://www.w3.org/2000/svg" xmlns:xlink="http://www.w3.org/1999/xlink" x="0px" y="0px"
	 width="64px" height="64px" viewBox="0 0 64 64" style="enable-background:new 0 0 64 64;" xml:space="preserve">
<g>
	<path d="M17.64,32.275h4.8c3.275,0,5.94-2.665,5.94-5.94s-2.665-5.94-5.94-5.94h-4.8c-3.275,0-5.94,2.665-5.94,5.94
		S14.365,32.275,17.64,32.275z M17.64,23.395h4.8c1.621,0,2.94,1.319,2.94,2.94s-1.319,2.94-2.94,2.94h-4.8
		c-1.622,0-2.94-1.319-2.94-2.94S16.019,23.395,17.64,23.395z"/>
	<path d="M36.84,32.275h4.8c3.275,0,5.94-2.665,5.94-5.94s-2.665-5.94-5.94-5.94h-4.8c-3.275,0-5.94,2.665-5.94,5.94
		S33.564,32.275,36.84,32.275z M36.84,23.395h4.8c1.621,0,2.94,1.319,2.94,2.94s-1.319,2.94-2.94,2.94h-4.8
		c-1.621,0-2.94-1.319-2.94-2.94S35.219,23.395,36.84,23.395z"/>
	<path d="M60.5,46.232c0-0.828-0.671-1.5-1.5-1.5h-5.14c0.424-0.668,0.666-1.414,0.666-2.209V20.081c0-2.922-3.172-5.21-7.221-5.21
		H12.694c-4.049,0-7.221,2.288-7.221,5.21v22.442c0,2.921,3.172,5.209,7.221,5.209h0.739c0.699,3.5,3.793,6.146,7.495,6.146
		s6.796-2.646,7.495-6.146h18.882H59C59.829,47.732,60.5,47.061,60.5,46.232z M8.474,42.523V20.081c0-1.043,1.805-2.21,4.221-2.21
		h34.611c2.416,0,4.221,1.167,4.221,2.21v22.442c0,1.043-1.805,2.209-4.221,2.209H28.424c-0.699-3.499-3.794-6.145-7.495-6.145
		s-6.796,2.646-7.495,6.145h-0.74C10.279,44.732,8.474,43.566,8.474,42.523z M20.929,50.878c-2.033,0-3.747-1.322-4.374-3.146
		c-0.163-0.473-0.27-0.972-0.27-1.5c0-0.528,0.107-1.027,0.27-1.5c0.628-1.823,2.341-3.145,4.374-3.145s3.747,1.322,4.375,3.145
		c0.163,0.473,0.27,0.972,0.27,1.5c0,0.528-0.107,1.027-0.27,1.5C24.676,49.556,22.962,50.878,20.929,50.878z"/>
</g>
</svg>
