<?xml version="1.0" encoding="utf-8"?>
<!-- Generator: Adobe Illustrator 16.0.0, SVG Export Plug-In . SVG Version: 6.00 Build 0)  -->
<!DOCTYPE svg PUBLIC "-//W3C//DTD SVG 1.1//EN" "http://www.w3.org/Graphics/SVG/1.1/DTD/svg11.dtd">
<svg version="1.1" id="Capa_1" xmlns="http://www.w3.org/2000/svg" xmlns:xlink="http://www.w3.org/1999/xlink" x="0px" y="0px"
	 width="54.789px" height="65.157px" viewBox="0 0 54.789 65.157" enable-background="new 0 0 54.789 65.157" xml:space="preserve">
<path fill="#040606" d="M54.643,26.268c-0.206-0.301-3.77-1.505-9.672-1.272c-3.906,0.153-7.766,1.255-11.396,2.684
	c-0.691,0.272-1.381,0.55-2.048,0.875c-0.755,0.375-1.384,0.762-2.21,0.992c-0.525,0.144-3.321,0.144-3.847,0
	c-0.825-0.229-1.456-0.617-2.21-0.992c-0.667-0.325-1.355-0.604-2.048-0.875c-3.63-1.429-7.489-2.531-11.396-2.684
	c-5.901-0.232-9.465,0.972-9.671,1.272c-0.205,0.299,0.366,1.888,0.539,2.454c0.147,0.482,0.645,0.115,0.958,0.223
	c0.672,0.232,1.198,0.978,1.603,1.511c0.801,1.062,1.402,2.252,2.191,3.314c0.654,0.877,1.378,1.709,2.157,2.473
	c1.223,1.202,2.583,2.304,4.122,3.069c1.57,0.783,3.045,1.018,4.766,1.099c1.687,0.081,3.487-0.312,4.976-1.101
	c1.283-0.685,2.402-1.669,3.164-2.913c0.455-0.746,0.817-1.548,1.057-2.39c0.155-0.548,0.125-1.366,0.471-1.839
	c0.11-0.152,0.257-0.279,0.429-0.382c0.516-0.311,1.161-0.3,1.668,0.022c0.156,0.099,0.291,0.218,0.394,0.359
	c0.346,0.473,0.315,1.292,0.471,1.839c0.239,0.842,0.602,1.644,1.057,2.39c0.761,1.244,1.881,2.229,3.164,2.913
	c1.487,0.789,3.288,1.182,4.976,1.101c1.721-0.081,3.195-0.315,4.766-1.099c1.539-0.766,2.899-1.867,4.122-3.069
	c0.78-0.764,1.504-1.596,2.158-2.473c0.789-1.062,1.39-2.252,2.19-3.314c0.405-0.533,0.931-1.279,1.603-1.511
	c0.313-0.108,0.813,0.259,0.959-0.223C54.276,28.156,54.847,26.567,54.643,26.268z M24.126,34.259
	c-1.377,5.518-8.991,4.918-8.991,4.918c-6.292-0.972-8.276-5.365-8.898-8.222c-0.298-1.369,0.619-3.241,1.92-3.754
	c5.136-2.017,11.056,1.064,14.105,3.061C23.433,31.028,24.465,32.903,24.126,34.259z M48.551,30.955
	c-0.622,2.857-2.605,7.25-8.898,8.222c0,0-7.612,0.6-8.99-4.918c-0.339-1.356,0.692-3.231,1.864-3.998
	c3.049-1.997,8.97-5.078,14.104-3.061C47.933,27.714,48.85,29.586,48.551,30.955z"/>
</svg>
