<?xml version="1.0" encoding="utf-8"?>
<!-- Generator: Adobe Illustrator 17.0.2, SVG Export Plug-In . SVG Version: 6.00 Build 0)  -->
<!DOCTYPE svg PUBLIC "-//W3C//DTD SVG 1.0//EN" "http://www.w3.org/TR/2001/REC-SVG-20010904/DTD/svg10.dtd">
<svg version="1.0" id="Layer_1" xmlns="http://www.w3.org/2000/svg" xmlns:xlink="http://www.w3.org/1999/xlink" x="0px" y="0px"
	 width="13.646px" height="20.242px" viewBox="0 0 13.646 20.242" enable-background="new 0 0 13.646 20.242" xml:space="preserve">
<path d="M12.855,3.024H6.484L6.395,2.325c-0.059-0.653-0.567-1.924-2.06-2.06C2.89,0.134,0.165,0.006,0.049,0L0,1.054
	c0.028,0.001,2.818,0.133,4.24,0.262C5.208,1.404,5.334,2.32,5.347,2.439l0.074,0.585H3.274H2.483v0.791v15.636v0.791h0.791h9.581
	h0.791v-0.791V3.815V3.024H12.855z M12.855,19.451H3.274V3.815h2.247l0.545,4.307H3.802v10.801h8.526V8.123H7.13L6.584,3.815h6.271
	V19.451z M7.648,13.089c0.277,0.099,0.421,0.403,0.322,0.679l-0.602,1.69c-0.099,0.277-0.403,0.421-0.679,0.322l-1.69-0.602
	c-0.277-0.099-0.421-0.403-0.322-0.679l0.602-1.69c0.099-0.277,0.403-0.421,0.679-0.322L7.648,13.089z M11.437,10.553l-0.602,1.69
	c-0.099,0.277-0.403,0.421-0.679,0.322l-1.69-0.602c-0.277-0.099-0.421-0.403-0.322-0.679l0.602-1.69
	c0.099-0.277,0.403-0.421,0.679-0.322l1.69,0.602C11.391,9.973,11.535,10.277,11.437,10.553z M11.693,16.87
	c0.102,0.275-0.039,0.581-0.314,0.683l-1.683,0.622c-0.275,0.102-0.581-0.039-0.683-0.314l-0.622-1.683
	c-0.102-0.275,0.039-0.581,0.314-0.683l1.683-0.622c0.275-0.102,0.581,0.039,0.683,0.314L11.693,16.87z"/>
</svg>
