<?xml version="1.0" encoding="utf-8"?>
<!-- Generator: Adobe Illustrator 16.0.0, SVG Export Plug-In . SVG Version: 6.00 Build 0)  -->
<!DOCTYPE svg PUBLIC "-//W3C//DTD SVG 1.1//EN" "http://www.w3.org/Graphics/SVG/1.1/DTD/svg11.dtd">
<svg version="1.1" id="Capa_1" xmlns="http://www.w3.org/2000/svg" xmlns:xlink="http://www.w3.org/1999/xlink" x="0px" y="0px"
	 width="53.971px" height="69.313px" viewBox="0 0 53.971 69.313" enable-background="new 0 0 53.971 69.313" xml:space="preserve">
<path fill="#040606" d="M32.03,53.494c12.491-2.36,21.94-13.333,21.94-26.512C53.97,12.084,41.88,0,26.981,0S0,12.084,0,26.982
	c0,13.4,9.525,24.521,22.331,26.624c1.363,0.224,2.234,1.408,2.234,2.79v6.127c0,1.194-0.968,2.162-2.162,2.162h-2.509
	c-1.21,0-2.191,0.981-2.191,2.191v0.244c0,1.21,0.981,2.191,2.191,2.191h14.182c1.21,0,2.191-0.981,2.191-2.191v-0.244
	c0-1.21-0.981-2.191-2.191-2.191h-2.349c-1.194,0-2.162-0.968-2.162-2.162v-6.181C29.565,54.963,30.673,53.75,32.03,53.494z
	 M5.083,26.983c0-12.094,9.809-21.898,21.898-21.898c12.095,0,21.897,9.806,21.897,21.898c0.001,12.092-9.803,21.899-21.897,21.899
	C14.89,48.883,5.083,39.075,5.083,26.983z"/>
<path fill="#040606" d="M46.429,21.276c-0.462-1.301-1.422-3.322-2.176-4.479c-5.183-7.943-11.268-8.431-15.932,2.305
	c-0.114,0.262-0.226,0.511-0.334,0.746c-0.298-0.037-0.6-0.063-0.907-0.063c-2.003,0-3.816,0.807-5.135,2.112
	c-0.223-0.069-0.438-0.157-0.629-0.293c-5.006-3.571-1.129-17.894-9.26-8.408c-0.899,1.047-2.171,2.891-2.796,4.122
	c-4.356,8.59-1.585,14.143,10.511,12.574c0.184-0.024,0.366-0.04,0.547-0.05c0.852,2.09,2.645,3.69,4.852,4.288
	c0.476,6.518-15.371,10.515-2.646,12.901c1.354,0.254,3.59,0.435,4.969,0.359c9.748-0.53,13.123-5.844,5.32-15.788
	c0.98-1.243,1.57-2.809,1.57-4.516c0-0.599-0.08-1.178-0.216-1.735C39.812,21.907,50.739,33.417,46.429,21.276z"/>
</svg>
