<?xml version="1.0" encoding="iso-8859-1"?>
<!-- Generator: Adobe Illustrator 18.0.0, SVG Export Plug-In . SVG Version: 6.00 Build 0)  -->
<!DOCTYPE svg PUBLIC "-//W3C//DTD SVG 1.1//EN" "http://www.w3.org/Graphics/SVG/1.1/DTD/svg11.dtd">
<svg version="1.1" id="Capa_1" xmlns="http://www.w3.org/2000/svg" xmlns:xlink="http://www.w3.org/1999/xlink" x="0px" y="0px"
	 viewBox="0 0 107.219 248.74" style="enable-background:new 0 0 107.219 248.74;" xml:space="preserve">
<path d="M107.096,26.549c0-7.755-1.418-14.657-1.418-14.657s-0.567-1.987-0.567-5.58c-4.634-3.026-9.173,0.472-9.173,0.472
	s-1.608-2.458-0.851-6.524c-4.161-1.135-9.362,1.829-9.362,1.829s-4.066,3.75-5.548,9.835c-9.835,9.835-25.975,34.8-25.975,34.8
	s-1.26,8.826,0.252,29.001c-4.791-4.793-3.278-15.383-3.278-15.383s-7.817,20.931-9.078,27.739
	c-1.261,6.808-20.679,46.401-20.679,46.401s0,19.417,4.035,41.104c-8.573-4.539-7.565-28.748-7.565-28.748
	s-5.548,21.183-3.279,23.453c2.27,2.268,5.043,21.938,7.566,24.461c0.344,1.074-8.606,35.399-18.44,47.882
	c-9.835,12.482,2.647,2.27,4.539,0.379c1.891-1.893,22.601-47.757,22.601-47.757s21.562-5.485,33.004-18.725
	c11.442-13.239,25.533-49.647,25.533-49.647s-11.324,3.133-16.171,3.877c4.823-2.174,18.725-13.05,18.725-13.05
	s2.931-14.753,9.74-35.747C108.515,60.972,107.096,34.303,107.096,26.549z M49.565,156.924
	c-5.864,11.511-16.488,23.479-18.44,25.696c-0.085,0.12-0.162,0.221-0.22,0.279c-0.193,0.193-0.095,0.079,0.22-0.279
	c1.935-2.718,10.53-20.697,14.154-27.461c3.783-7.061,46.149-139.201,46.149-139.201C88.906,39.409,56.374,143.56,49.565,156.924z"
	/>
<g>
</g>
<g>
</g>
<g>
</g>
<g>
</g>
<g>
</g>
<g>
</g>
<g>
</g>
<g>
</g>
<g>
</g>
<g>
</g>
<g>
</g>
<g>
</g>
<g>
</g>
<g>
</g>
<g>
</g>
</svg>
