<?xml version="1.0" encoding="utf-8"?>
<!-- Generator: Adobe Illustrator 16.0.0, SVG Export Plug-In . SVG Version: 6.00 Build 0)  -->
<!DOCTYPE svg PUBLIC "-//W3C//DTD SVG 1.1//EN" "http://www.w3.org/Graphics/SVG/1.1/DTD/svg11.dtd">
<svg version="1.1" id="Layer_1" xmlns="http://www.w3.org/2000/svg" xmlns:xlink="http://www.w3.org/1999/xlink" x="0px" y="0px"
	 width="126px" height="126px" viewBox="0 0 126 126" enable-background="new 0 0 126 126" xml:space="preserve">
<g>
	<rect x="1.218" y="106.306" width="124.019" height="9.446"/>
	<path d="M13.776,66.306l6.589-4.713l-6.936,41.768h26.627l-14.852-2.467l8.059-48.527l11.068-7.914l-3.333-2.917l-1.502-1.313
		l0.628-1.365l3.135-6.815l-2.075-6.019L3.991,52.623c-3.776,2.701-4.649,7.955-1.948,11.733
		C4.744,68.132,9.999,69.006,13.776,66.306z"/>
	<path d="M51.115,32.938l-0.293,0.708l-2.278,5.501l3.876,3.135l25.724-12.395l20.995,43.57l-10.401,29.749h11.877l5.408-15.466
		l3.517,7.3c1.009,2.089,2.769,3.575,4.801,4.286c2.03,0.71,4.334,0.645,6.426-0.361c4.183-2.017,5.94-7.043,3.926-11.227
		l-35.046-72.73c-0.967-2.008-2.695-3.552-4.8-4.289c-2.105-0.735-4.417-0.604-6.427,0.363L48.27,25.61l2.684,6.911L51.115,32.938z"
		/>
	<polygon points="57.667,103.306 58.485,99.882 62.549,99.841 67.863,99.788 68.016,95.561 68.672,77.287 73.243,83.088 
		77.426,88.394 77.007,81.917 74.943,50.054 73.316,75.174 68.436,66.999 64.22,59.935 62.801,68.444 59.382,88.949 54.392,87.444 
		49.976,86.113 47.521,91.677 42.389,103.306 	"/>
</g>
</svg>
