<?xml version="1.0" encoding="iso-8859-1"?>
<!-- Generator: Adobe Illustrator 16.0.0, SVG Export Plug-In . SVG Version: 6.00 Build 0)  -->
<!DOCTYPE svg PUBLIC "-//W3C//DTD SVG 1.1//EN" "http://www.w3.org/Graphics/SVG/1.1/DTD/svg11.dtd">
<svg version="1.1" id="Layer_1" xmlns="http://www.w3.org/2000/svg" xmlns:xlink="http://www.w3.org/1999/xlink" x="0px" y="0px"
	 width="24.432px" height="20.91px" viewBox="0 0 24.432 20.91" style="enable-background:new 0 0 24.432 20.91;"
	 xml:space="preserve">
<g>
	<path d="M6.42,7.54c1.771,0,3.205-1.435,3.205-3.208c0-1.105,0.389-2.117-0.465-2.691C8.648,1.292,6.4,1.127,5.736,1.127
		c-0.79,0-1.817,0.644-2.376,1.119C2.665,2.833,3.213,3.35,3.213,4.331C3.213,6.105,4.646,7.54,6.42,7.54z M4.186,4.018
		c0.589-0.107,0.989,0.087,0.989,0.087l0.984-0.479c0,0-0.501,0.724-0.051,0.479C7.11,3.769,8.231,3.909,8.801,4.021
		c0.02,0.125,0.038,0.253,0.038,0.386c0,1.32-1.048,2.387-2.349,2.387c-1.294,0-2.343-1.067-2.343-2.387
		C4.147,4.274,4.165,4.146,4.186,4.018z"/>
	<path d="M22.066,3.882c-0.014-0.183-0.03-0.365-0.07-0.541c-0.127-1.124-1.132-3.408-4.02-3.34
		c-2.488,0.059-3.031,1.932-3.161,3.072c-0.088,0.28-0.145,0.573-0.164,0.878C11.414,4.516,11.77,7.8,13.746,7.856
		c-0.188-1.715,0.63-2.745,0.945-3.076c0.291,1.772,1.82,3.132,3.672,3.132c1.756,0,3.222-1.223,3.619-2.858
		c0.303,0.534,0.812,1.628,0.688,2.803C25.783,7.83,24.251,4.271,22.066,3.882z M18.363,6.856c-1.455,0-2.639-1.172-2.672-2.621
		c0.532-0.193,0.925-1.113,0.925-1.113s0.316,0.108,0.316,1.147c0.551,0.192,1.508-1.614,1.508-1.614v1.423
		c0.607,0.166,2.521-0.054,2.521-0.054l0.071,0.06c0.001,0.03,0.009,0.061,0.009,0.092C21.042,5.654,19.842,6.856,18.363,6.856z"/>
	<polygon points="19.142,8.008 17.569,8.008 16.253,8.008 12.402,12.648 8.675,8.066 4.438,8.066 0,12.938 0.93,13.897 
		4.107,11.186 4.107,16.444 4.744,16.444 4.744,20.441 4.339,20.441 4.339,20.91 6.184,20.91 6.184,20.441 6.184,16.444 
		6.875,16.444 6.875,20.441 6.875,20.91 8.716,20.91 8.716,20.441 8.312,20.441 8.312,16.444 9.085,16.444 9.085,11.284 
		11.625,13.893 12.663,13.637 13.239,13.78 16.115,10.488 16.279,11.792 13.608,16.385 16.69,16.385 16.69,20.382 16.284,20.382 
		16.284,20.848 18.127,20.848 18.127,20.382 18.129,20.382 18.129,16.385 18.819,16.385 18.819,20.382 18.819,20.848 20.662,20.848 
		20.662,20.382 20.257,20.382 20.257,16.385 22.647,16.385 20.292,11.792 20.421,10.187 22.67,13.2 24.16,12.829 20.594,8.008 	"/>
</g>
<g>
</g>
<g>
</g>
<g>
</g>
<g>
</g>
<g>
</g>
<g>
</g>
<g>
</g>
<g>
</g>
<g>
</g>
<g>
</g>
<g>
</g>
<g>
</g>
<g>
</g>
<g>
</g>
<g>
</g>
</svg>
