<?xml version="1.0" encoding="iso-8859-1"?>
<!-- Generator: Adobe Illustrator 16.0.0, SVG Export Plug-In . SVG Version: 6.00 Build 0)  -->
<!DOCTYPE svg PUBLIC "-//W3C//DTD SVG 1.1//EN" "http://www.w3.org/Graphics/SVG/1.1/DTD/svg11.dtd">
<svg version="1.1" id="Layer_1" xmlns="http://www.w3.org/2000/svg" xmlns:xlink="http://www.w3.org/1999/xlink" x="0px" y="0px"
	 width="40.416px" height="45.182px" viewBox="0 0 40.416 45.182" style="enable-background:new 0 0 40.416 45.182;"
	 xml:space="preserve">
<g>
	<path d="M9.511,21.213l0.581,0.814c0.006-0.004,0.389-0.266,1.076-0.464c-0.001,0.019-0.008,0.037-0.008,0.056
		c0,0.563,0.636,1.02,1.42,1.02S14,22.183,14,21.619c0-0.073-0.011-0.144-0.031-0.212c0.947,0.101,1.456,0.289,1.461,0.291
		l0.364-0.932c-0.044-0.017-1.103-0.422-3.042-0.422C10.746,20.344,9.561,21.177,9.511,21.213z"/>
	<path d="M26.876,21.854c-0.001,0.019-0.008,0.037-0.008,0.056c0,0.563,0.636,1.02,1.42,1.02s1.42-0.457,1.42-1.02
		c0-0.073-0.011-0.143-0.032-0.211c0.948,0.101,1.457,0.288,1.462,0.29l0.364-0.932c-0.044-0.017-1.103-0.422-3.042-0.422
		c-2.006,0-3.191,0.833-3.241,0.869l0.581,0.814C25.806,22.314,26.189,22.052,26.876,21.854z"/>
	<path d="M40.416,21.431c0-2.375-1.16-4.446-2.886-5.578C36.393,6.923,28.983,0,20.018,0C11.207,0,3.902,6.689,2.575,15.398
		C1.021,16.567,0,18.534,0,20.764c0,2.875,1.698,5.311,4.047,6.165c0.424,1.092,0.927,2.154,1.489,3.176L2.42,30.651l3.179,14.49
		l9.177-1.607c0.064,0.059,0.13,0.112,0.2,0.152c3.773,2.148,7.606,1.94,10.073-0.341c0.051-0.016,0.098-0.047,0.146-0.077
		l9.332,1.562l3.09-14.512l-3.156-0.528c0.359-0.64,0.7-1.29,1.004-1.956C38.271,27.337,40.416,24.663,40.416,21.431z M6.57,43.578
		l-2.59-11.807l9.056-1.586l2.591,11.807L6.57,43.578z M7.199,27.336l6.687,0.079c-0.052,0.385-0.102,0.805-0.15,1.254l-5.679,0.995
		C7.732,28.903,7.44,28.126,7.199,27.336z M19.804,20.411c-2.033,0.036-4.774,2.308-5.55,5.009l-7.123-0.084l-0.079-6.864
		l1.732-1.053h22.242l2.071,2.007l-0.251,5.308l-0.962,0.894l-6.383-0.075c-0.045-0.167-0.09-0.318-0.135-0.433
		C24.409,22.677,21.846,20.375,19.804,20.411z M6.975,16.178c1.768-6.076,6.654-10.116,12.914-10.116
		c6.481,0,11.379,4.096,13.03,10.404l-1.081-1.048H8.225L6.975,16.178z M32.407,27.633c-0.198,0.574-0.427,1.14-0.671,1.699
		l-5.72-0.958L26,28.451c-0.038-0.313-0.077-0.612-0.118-0.895L32.407,27.633z M36.01,31.497l-2.495,11.715l-8.982-1.503
		l2.494-11.716L36.01,31.497z M34.559,14.94c-2.112-6.624-7.554-10.877-14.67-10.877c-6.75,0-12.117,4.036-14.418,10.232
		c-0.251,0.02-0.5,0.051-0.742,0.104C6.407,7.296,12.616,2,20.018,2c7.622,0,13.994,5.606,15.442,13.027
		C35.166,14.975,34.866,14.941,34.559,14.94z"/>
</g>
<g>
</g>
<g>
</g>
<g>
</g>
<g>
</g>
<g>
</g>
<g>
</g>
<g>
</g>
<g>
</g>
<g>
</g>
<g>
</g>
<g>
</g>
<g>
</g>
<g>
</g>
<g>
</g>
<g>
</g>
</svg>
