<?xml version="1.0" encoding="utf-8"?>
<!-- Generator: Adobe Illustrator 16.0.0, SVG Export Plug-In . SVG Version: 6.00 Build 0)  -->
<!DOCTYPE svg PUBLIC "-//W3C//DTD SVG 1.1//EN" "http://www.w3.org/Graphics/SVG/1.1/DTD/svg11.dtd">
<svg version="1.1" id="Capa_1" xmlns="http://www.w3.org/2000/svg" xmlns:xlink="http://www.w3.org/1999/xlink" x="0px" y="0px"
	 width="500px" height="500px" viewBox="0 0 500 500" enable-background="new 0 0 500 500" xml:space="preserve">
<path d="M250,5.416C114.92,5.416,5.416,114.92,5.416,250C5.416,385.081,114.92,494.584,250,494.584
	c135.08,0,244.584-109.503,244.584-244.584C494.584,114.92,385.08,5.416,250,5.416z M250,38.153
	c27.771,0,54.513,4.402,79.567,12.547L284.887,187.52c-10.93-3.793-19.02-8.659-34.887-8.659c-17.049,0-23.943,4.863-34.867,8.651
	L170.427,50.704C195.484,42.558,222.227,38.153,250,38.153z M201.501,250c0-26.743,21.756-48.499,48.499-48.499
	s48.498,21.756,48.498,48.499c0,26.742-21.756,48.498-48.498,48.498S201.501,276.742,201.501,250z M118.969,419.949
	c-19.766-17.417-37.17-38.193-51.309-62.095c-14.137-23.905-23.963-49.163-29.707-74.876l140.512-31.175
	c2.301,11.331,1.625,19.742,10.303,34.414c8.079,13.659,16.387,18.145,25.215,25.62L118.969,419.949z M374.782,424.587
	l-91.033-111.484c9.095-7.148,17.557-11.331,26.127-24.686c9.205-14.35,8.835-22.783,11.546-34.02l139.292,36.244
	c-6.673,25.488-17.408,50.373-32.406,73.75C413.313,387.767,395.167,407.898,374.782,424.587z"/>
</svg>
