<?xml version="1.0" encoding="utf-8"?>
<!-- Generator: Adobe Illustrator 16.0.0, SVG Export Plug-In . SVG Version: 6.00 Build 0)  -->
<!DOCTYPE svg PUBLIC "-//W3C//DTD SVG 1.1//EN" "http://www.w3.org/Graphics/SVG/1.1/DTD/svg11.dtd">
<svg version="1.1" id="Layer_13" xmlns="http://www.w3.org/2000/svg" xmlns:xlink="http://www.w3.org/1999/xlink" x="0px" y="0px"
	 width="100px" height="100px" viewBox="0 0 100 100" enable-background="new 0 0 100 100" xml:space="preserve">
<path d="M97.416,77.396c-1.621-0.703-3.182-1.451-4.695-2.229l3.217-8.247c0.08-0.207,0.072-0.439-0.025-0.641
	s-0.273-0.353-0.486-0.418l-2.303-0.709c-0.211-0.064-0.443-0.039-0.637,0.072s-0.332,0.299-0.381,0.516l-0.974,4.249
	c-24.429-7.701-40.388-51.135-40.552-51.59l-0.146-0.403c-0.082-0.441-0.119-0.681-0.119-0.681c-0.006,0.093-0.018,0.187-0.025,0.28
	l-0.119-0.329l-0.352,1.151C42.232,43.232,13.959,64.754,7.516,69.402L6.678,65.74c-0.05-0.217-0.188-0.404-0.381-0.516
	c-0.193-0.112-0.428-0.138-0.639-0.072l-2.301,0.709c-0.214,0.065-0.391,0.217-0.487,0.418s-0.106,0.434-0.024,0.641l3.791,9.724
	c-0.652,0.492-1.014,0.752-1.014,0.752h1.308l1.882,4.827c0.123,0.314,0.426,0.511,0.748,0.511c0.079,0,0.158-0.012,0.236-0.035
	c0.402-0.124,0.641-0.537,0.547-0.947l-0.998-4.355h24.377c3.914-1.556,15.053-10.838,16.859-24.486c0,0,3.938,19.33,9.836,24.486
	h29.018l-0.996,4.355c-0.095,0.41,0.144,0.823,0.546,0.947c0.078,0.024,0.157,0.035,0.235,0.035c0.324,0,0.625-0.196,0.748-0.511
	l1.883-4.827H97.416z M8.793,74.982l-1.083-4.73c5.759-4.127,33.464-24.947,42.159-49.44C45.737,44.212,18.227,67.572,8.793,74.982z
	 M51.706,23.347c4.935,11.591,19.265,41.165,39.247,47.428l-0.704,3.071C64.461,59.399,54.873,34.699,51.706,23.347z"/>
</svg>
