<?xml version="1.0" encoding="iso-8859-1"?>
<!-- Generator: Adobe Illustrator 16.0.0, SVG Export Plug-In . SVG Version: 6.00 Build 0)  -->
<!DOCTYPE svg PUBLIC "-//W3C//DTD SVG 1.1//EN" "http://www.w3.org/Graphics/SVG/1.1/DTD/svg11.dtd">
<svg version="1.1" xmlns="http://www.w3.org/2000/svg" xmlns:xlink="http://www.w3.org/1999/xlink" x="0px" y="0px"
	 width="29.242px" height="27.906px" viewBox="0 0 29.242 27.906" style="enable-background:new 0 0 29.242 27.906;"
	 xml:space="preserve">
<g id="c68_twitter">
	<path style="fill:#000000;" d="M26.918,0H2.326C1.039,0,0,1.039,0,2.324v23.259c0,1.282,1.039,2.323,2.326,2.323h24.592
		c1.281,0,2.324-1.041,2.324-2.323V2.324C29.242,1.039,28.199,0,26.918,0z M14.549,16.65c0.41,0.41,0.908,0.617,1.496,0.617h4.227
		c0.59,0,1.09,0.211,1.51,0.629c0.422,0.418,0.629,0.922,0.629,1.508s-0.209,1.089-0.629,1.506c-0.42,0.42-0.92,0.631-1.508,0.631
		h-4.227c-1.76,0-3.266-0.627-4.514-1.875c-1.25-1.25-1.873-2.754-1.873-4.514V6.625c0-0.604,0.207-1.111,0.623-1.522
		c0.416-0.409,0.924-0.615,1.523-0.615c0.584,0,1.082,0.208,1.5,0.628c0.416,0.42,0.623,0.921,0.623,1.508V8.76h6.334
		c0.592,0,1.094,0.209,1.514,0.629c0.426,0.418,0.633,0.919,0.633,1.508c0,0.583-0.209,1.088-0.629,1.508
		c-0.42,0.417-0.92,0.627-1.51,0.627H13.93v2.117C13.93,15.738,14.135,16.237,14.549,16.65z"/>
</g>
<g id="Capa_1">
</g>
</svg>
