<?xml version="1.0" encoding="iso-8859-1"?>
<!-- Generator: Adobe Illustrator 18.0.0, SVG Export Plug-In . SVG Version: 6.00 Build 0)  -->
<!DOCTYPE svg PUBLIC "-//W3C//DTD SVG 1.1//EN" "http://www.w3.org/Graphics/SVG/1.1/DTD/svg11.dtd">
<svg version="1.1" id="Capa_1" xmlns="http://www.w3.org/2000/svg" xmlns:xlink="http://www.w3.org/1999/xlink" x="0px" y="0px"
	 viewBox="0 0 44.127 36.081" style="enable-background:new 0 0 44.127 36.081;" xml:space="preserve">
<g id="twitter">
	<g>
		<path style="fill-rule:evenodd;clip-rule:evenodd;" d="M43.692,4.209c-0.354-0.242-0.821-0.234-1.164,0.023
			c-0.237,0.177-0.59,0.334-1.002,0.471c1.357-1.683,1.377-2.808,1.357-3.085c-0.027-0.36-0.246-0.679-0.573-0.832
			c-0.328-0.154-0.712-0.12-1.006,0.092c-1.85,1.324-3.701,1.612-4.781,1.65C34.765,0.895,32.492,0,30.076,0
			c-5.227,0-9.48,4.251-9.48,9.478c0,0.378,0.022,0.756,0.067,1.13C11.94,10.391,4.865,2.169,4.794,2.085
			c-0.209-0.248-0.524-0.379-0.85-0.35C3.621,1.764,3.332,1.947,3.168,2.227c-2.22,3.795-1.314,7.391,0.208,9.906
			c-0.283-0.152-0.625-0.162-0.919-0.015c-0.334,0.166-0.549,0.505-0.555,0.879c-0.065,3.987,1.756,6.377,3.593,7.769
			c-0.135,0.055-0.258,0.14-0.359,0.251c-0.239,0.262-0.322,0.631-0.217,0.97c1.277,4.119,4.277,5.663,6.382,6.241
			c-2.414,1.702-5.4,2.101-7.669,2.101c-1.449,0-2.447-0.172-2.457-0.174c-0.452-0.08-0.906,0.163-1.091,0.587
			c-0.184,0.424-0.054,0.919,0.316,1.197c4.553,3.423,10.051,4.142,13.862,4.142c3.012,0,5.105-0.44,5.211-0.463
			C39.035,31.05,39.778,13.51,39.747,10.314c3.667-3.369,4.251-4.684,4.343-5.012C44.205,4.89,44.045,4.451,43.692,4.209z
			 M38.064,9.144c-0.227,0.206-0.347,0.504-0.326,0.81c0.013,0.19,1.082,19.093-18.701,23.713c-0.019,0.004-1.99,0.415-4.776,0.415
			c-2.596,0-6.032-0.355-9.311-1.794c3.002-0.192,6.683-1.113,9.331-4.042c0.265-0.294,0.33-0.715,0.169-1.077
			c-0.161-0.361-0.522-0.594-0.917-0.594c-0.186,0-4.122-0.047-6.092-3.706c0.912,0.029,1.739-0.106,2.352-0.385
			c0.393-0.179,0.625-0.589,0.579-1.018c-0.046-0.429-0.364-0.78-0.786-0.871c-0.213-0.046-4.744-1.078-5.561-5.857
			c0.71,0.271,1.574,0.459,2.41,0.336c0.388-0.058,0.707-0.337,0.815-0.714c0.108-0.377-0.015-0.783-0.313-1.037
			c-0.2-0.17-4.521-3.925-2.644-8.839c2.517,2.555,9.366,8.569,17.625,8.104c0.298-0.017,0.574-0.167,0.75-0.408
			c0.176-0.241,0.236-0.549,0.162-0.839c-0.155-0.605-0.233-1.232-0.233-1.862c0-4.123,3.355-7.478,7.48-7.478
			c2.021,0,3.914,0.793,5.332,2.234c0.184,0.186,0.434,0.294,0.696,0.298l0.154,0.001c0.735,0,1.887-0.089,3.208-0.515
			c-0.423,0.447-0.973,0.951-1.686,1.502c-0.35,0.271-0.48,0.739-0.321,1.151c0.159,0.413,0.575,0.673,1.011,0.637
			c0.162-0.013,0.874-0.075,1.755-0.233C39.671,7.644,38.964,8.327,38.064,9.144z"/>
	</g>
</g>
<g>
</g>
<g>
</g>
<g>
</g>
<g>
</g>
<g>
</g>
<g>
</g>
<g>
</g>
<g>
</g>
<g>
</g>
<g>
</g>
<g>
</g>
<g>
</g>
<g>
</g>
<g>
</g>
<g>
</g>
</svg>
