<?xml version="1.0" encoding="utf-8"?>
<!-- Generator: Adobe Illustrator 16.0.4, SVG Export Plug-In . SVG Version: 6.00 Build 0)  -->
<!DOCTYPE svg PUBLIC "-//W3C//DTD SVG 1.1//EN" "http://www.w3.org/Graphics/SVG/1.1/DTD/svg11.dtd">
<svg version="1.1" id="Layer_1" xmlns="http://www.w3.org/2000/svg" xmlns:xlink="http://www.w3.org/1999/xlink" x="0px" y="0px"
	 width="26px" height="26px" viewBox="0 0 26 26" enable-background="new 0 0 26 26" xml:space="preserve">
<path fill="#333333" d="M20.904,0H5.096C2.293,0,0,2.293,0,5.094v15.812C0,23.707,2.293,26,5.096,26h15.808
	C23.707,26,26,23.707,26,20.906V5.094C26,2.293,23.707,0,20.904,0z M19.943,15.104c1.424,1.32,1.72,1.963,1.768,2.043
	c0.59,0.979-0.652,1.056-0.652,1.056l-2.377,0.032c0,0-0.512,0.102-1.184-0.36c-0.889-0.608-1.727-2.194-2.38-1.988
	c-0.662,0.21-0.642,1.638-0.642,1.638s0.004,0.203-0.146,0.367C14.167,18.064,13.846,18,13.846,18h-1.062
	c0,0-2.347,0.241-4.414-1.91c-2.254-2.347-4.244-6.954-4.244-6.954s-0.114-0.28,0.01-0.428c0.141-0.166,0.522-0.164,0.522-0.164
	l2.542-0.01c0,0,0.239,0.043,0.411,0.169c0.142,0.104,0.221,0.3,0.221,0.3s0.411,1.04,0.955,1.98
	c1.062,1.835,1.557,2.237,1.917,2.04c0.526-0.287,0.368-2.594,0.368-2.594s0.01-0.838-0.265-1.211
	c-0.212-0.289-0.612-0.374-0.789-0.397c-0.144-0.019,0.091-0.351,0.396-0.5c0.458-0.224,1.266-0.236,2.221-0.227
	c0.743,0.007,0.958,0.054,1.248,0.124c0.877,0.211,0.579,1.029,0.579,2.989c0,0.628-0.113,1.511,0.34,1.804
	c0.195,0.126,0.672,0.019,1.862-2.004c0.565-0.959,0.987-2.086,0.987-2.086s0.094-0.201,0.236-0.287
	c0.147-0.088,0.346-0.061,0.346-0.061l2.677-0.017c0,0,0.804-0.096,0.934,0.267c0.138,0.381-0.301,1.27-1.394,2.727
	C18.652,13.943,18.454,13.721,19.943,15.104z"/>
</svg>
